<svg width="268" height="119" viewBox="0 0 268 119" fill="none" xmlns="http://www.w3.org/2000/svg">
<g filter="url(#filter0_d_39_408)">
<rect x="26" y="20" width="216" height="67" rx="10" fill="white"/>
</g>
<path d="M116.102 36.364C116.69 36.364 117.188 36.382 117.596 36.418C118.016 36.442 118.4 36.484 118.748 36.544C119.096 36.604 119.456 36.688 119.828 36.796L119.612 38.812C119.216 38.788 118.85 38.77 118.514 38.758C118.19 38.746 117.836 38.74 117.452 38.74C117.08 38.728 116.63 38.722 116.102 38.722C115.49 38.722 115.01 38.842 114.662 39.082C114.326 39.322 114.086 39.742 113.942 40.342C113.798 40.93 113.726 41.746 113.726 42.79C113.726 43.834 113.798 44.656 113.942 45.256C114.086 45.844 114.326 46.258 114.662 46.498C115.01 46.738 115.49 46.858 116.102 46.858C116.93 46.858 117.626 46.846 118.19 46.822C118.754 46.798 119.312 46.756 119.864 46.696L120.098 48.712C119.522 48.892 118.934 49.018 118.334 49.09C117.734 49.174 116.99 49.216 116.102 49.216C114.818 49.216 113.786 49.012 113.006 48.604C112.238 48.184 111.68 47.506 111.332 46.57C110.996 45.634 110.828 44.374 110.828 42.79C110.828 41.206 110.996 39.946 111.332 39.01C111.68 38.074 112.238 37.402 113.006 36.994C113.786 36.574 114.818 36.364 116.102 36.364ZM127.854 39.874C129.534 39.874 130.374 40.696 130.374 42.34V49H127.692V43.168C127.692 42.772 127.62 42.502 127.476 42.358C127.344 42.202 127.104 42.124 126.756 42.124C126.372 42.124 125.976 42.196 125.568 42.34C125.16 42.484 124.656 42.718 124.056 43.042L123.822 41.656C124.482 41.08 125.154 40.642 125.838 40.342C126.522 40.03 127.194 39.874 127.854 39.874ZM124.326 36.4L124.344 39.478C124.344 39.946 124.314 40.39 124.254 40.81C124.206 41.23 124.146 41.584 124.074 41.872L124.326 42.106V49H121.662V36.4H124.326ZM137.171 39.874C137.915 39.874 138.545 39.976 139.061 40.18C139.577 40.372 139.967 40.708 140.231 41.188C140.507 41.656 140.645 42.304 140.645 43.132V49H138.521L138.143 47.074L137.963 46.804V43.114C137.963 42.694 137.861 42.388 137.657 42.196C137.465 42.004 137.093 41.908 136.541 41.908C136.085 41.908 135.515 41.926 134.831 41.962C134.147 41.986 133.445 42.022 132.725 42.07L132.473 40.306C132.905 40.222 133.403 40.15 133.967 40.09C134.531 40.03 135.095 39.982 135.659 39.946C136.223 39.898 136.727 39.874 137.171 39.874ZM139.547 43.528L139.529 45.022L135.569 45.04C135.245 45.04 135.011 45.118 134.867 45.274C134.735 45.43 134.669 45.64 134.669 45.904V46.336C134.669 46.636 134.753 46.87 134.921 47.038C135.089 47.194 135.359 47.272 135.731 47.272C136.043 47.272 136.379 47.206 136.739 47.074C137.111 46.942 137.477 46.756 137.837 46.516C138.197 46.276 138.515 45.994 138.791 45.67V46.822C138.683 47.002 138.521 47.23 138.305 47.506C138.101 47.77 137.837 48.034 137.513 48.298C137.189 48.55 136.811 48.766 136.379 48.946C135.947 49.126 135.455 49.216 134.903 49.216C134.363 49.216 133.877 49.12 133.445 48.928C133.013 48.736 132.671 48.454 132.419 48.082C132.167 47.71 132.041 47.248 132.041 46.696V45.778C132.041 45.07 132.281 44.518 132.761 44.122C133.241 43.726 133.901 43.528 134.741 43.528H139.547ZM145.42 36.4L145.402 46.156C145.402 46.456 145.492 46.684 145.672 46.84C145.852 46.984 146.116 47.056 146.464 47.056H147.184L147.49 48.856C147.346 48.928 147.142 48.988 146.878 49.036C146.614 49.096 146.344 49.138 146.068 49.162C145.792 49.198 145.558 49.216 145.366 49.216C144.562 49.216 143.926 49.006 143.458 48.586C142.99 48.166 142.756 47.578 142.756 46.822V36.4H145.42ZM151.326 36.4L151.308 46.156C151.308 46.456 151.398 46.684 151.578 46.84C151.758 46.984 152.022 47.056 152.37 47.056H153.09L153.396 48.856C153.252 48.928 153.048 48.988 152.784 49.036C152.52 49.096 152.25 49.138 151.974 49.162C151.698 49.198 151.464 49.216 151.272 49.216C150.468 49.216 149.832 49.006 149.364 48.586C148.896 48.166 148.662 47.578 148.662 46.822V36.4H151.326ZM158.763 39.874C160.263 39.874 161.337 40.132 161.985 40.648C162.645 41.152 162.975 41.908 162.975 42.916C162.987 43.732 162.783 44.344 162.363 44.752C161.943 45.148 161.217 45.346 160.185 45.346H155.217V43.852H159.447C159.855 43.852 160.113 43.768 160.221 43.6C160.341 43.42 160.401 43.174 160.401 42.862C160.389 42.442 160.263 42.154 160.023 41.998C159.795 41.83 159.405 41.746 158.853 41.746C158.361 41.746 157.977 41.812 157.701 41.944C157.425 42.076 157.233 42.328 157.125 42.7C157.017 43.072 156.963 43.612 156.963 44.32C156.963 45.064 157.029 45.64 157.161 46.048C157.293 46.444 157.515 46.72 157.827 46.876C158.151 47.032 158.595 47.11 159.159 47.11C159.567 47.11 160.071 47.098 160.671 47.074C161.283 47.038 161.895 46.984 162.507 46.912L162.759 48.55C162.411 48.718 162.015 48.85 161.571 48.946C161.127 49.042 160.671 49.108 160.203 49.144C159.735 49.192 159.285 49.216 158.853 49.216C157.725 49.216 156.813 49.054 156.117 48.73C155.433 48.394 154.935 47.884 154.623 47.2C154.323 46.516 154.173 45.64 154.173 44.572C154.173 43.408 154.329 42.484 154.641 41.8C154.953 41.116 155.445 40.624 156.117 40.324C156.789 40.024 157.671 39.874 158.763 39.874ZM170.903 39.874C172.583 39.874 173.423 40.696 173.423 42.34V49H170.759V43.168C170.759 42.772 170.687 42.502 170.543 42.358C170.399 42.202 170.153 42.124 169.805 42.124C169.421 42.124 169.025 42.202 168.617 42.358C168.209 42.502 167.705 42.73 167.105 43.042L166.979 41.548C167.615 41.008 168.263 40.594 168.923 40.306C169.595 40.018 170.255 39.874 170.903 39.874ZM166.853 40.108L167.159 41.872L167.375 42.106V49H164.711V40.108H166.853ZM179.481 39.874C180.513 39.874 181.329 39.97 181.929 40.162C182.541 40.354 182.979 40.654 183.243 41.062C183.519 41.47 183.657 42.016 183.657 42.7C183.657 43.36 183.525 43.9 183.261 44.32C182.997 44.728 182.553 45.028 181.929 45.22C181.317 45.412 180.495 45.508 179.463 45.508C178.431 45.508 177.603 45.412 176.979 45.22C176.367 45.028 175.923 44.728 175.647 44.32C175.383 43.912 175.251 43.372 175.251 42.7C175.251 42.028 175.383 41.488 175.647 41.08C175.923 40.66 176.373 40.354 176.997 40.162C177.621 39.97 178.449 39.874 179.481 39.874ZM179.463 41.512C178.803 41.512 178.347 41.602 178.095 41.782C177.843 41.95 177.717 42.256 177.717 42.7C177.717 43.144 177.843 43.456 178.095 43.636C178.347 43.816 178.803 43.906 179.463 43.906C180.123 43.906 180.573 43.816 180.813 43.636C181.053 43.456 181.173 43.144 181.173 42.7C181.173 42.256 181.053 41.95 180.813 41.782C180.573 41.602 180.123 41.512 179.463 41.512ZM184.683 40.108L184.539 41.242L182.163 41.548L181.515 40.108H184.683ZM176.781 44.968L178.113 45.202C177.945 45.298 177.825 45.448 177.753 45.652C177.693 45.856 177.711 46.048 177.807 46.228C177.903 46.408 178.113 46.516 178.437 46.552L181.713 46.93C182.649 47.026 183.309 47.29 183.693 47.722C184.077 48.142 184.269 48.76 184.269 49.576C184.269 50.344 184.113 50.932 183.801 51.34C183.489 51.76 182.991 52.048 182.307 52.204C181.623 52.36 180.711 52.438 179.571 52.438C178.635 52.438 177.861 52.39 177.249 52.294C176.649 52.21 176.169 52.066 175.809 51.862C175.461 51.658 175.215 51.388 175.071 51.052C174.939 50.728 174.873 50.32 174.873 49.828C174.873 49.456 174.939 49.138 175.071 48.874C175.203 48.598 175.425 48.352 175.737 48.136C176.061 47.92 176.511 47.722 177.087 47.542L178.401 47.074L179.355 47.452L178.635 47.92C178.335 48.136 178.089 48.322 177.897 48.478C177.717 48.622 177.585 48.766 177.501 48.91C177.429 49.054 177.393 49.246 177.393 49.486C177.393 49.762 177.453 49.972 177.573 50.116C177.693 50.272 177.909 50.374 178.221 50.422C178.545 50.482 178.983 50.512 179.535 50.512C180.111 50.512 180.561 50.482 180.885 50.422C181.209 50.374 181.431 50.278 181.551 50.134C181.683 49.99 181.749 49.786 181.749 49.522C181.749 49.294 181.701 49.126 181.605 49.018C181.521 48.91 181.371 48.832 181.155 48.784C180.951 48.724 180.663 48.67 180.291 48.622L177.501 48.316C177.033 48.268 176.667 48.142 176.403 47.938C176.139 47.734 175.953 47.488 175.845 47.2C175.749 46.9 175.725 46.6 175.773 46.3C175.821 46 175.929 45.73 176.097 45.49C176.277 45.25 176.505 45.076 176.781 44.968ZM190.087 39.874C191.587 39.874 192.661 40.132 193.309 40.648C193.969 41.152 194.299 41.908 194.299 42.916C194.311 43.732 194.107 44.344 193.687 44.752C193.267 45.148 192.541 45.346 191.509 45.346H186.541V43.852H190.771C191.179 43.852 191.437 43.768 191.545 43.6C191.665 43.42 191.725 43.174 191.725 42.862C191.713 42.442 191.587 42.154 191.347 41.998C191.119 41.83 190.729 41.746 190.177 41.746C189.685 41.746 189.301 41.812 189.025 41.944C188.749 42.076 188.557 42.328 188.449 42.7C188.341 43.072 188.287 43.612 188.287 44.32C188.287 45.064 188.353 45.64 188.485 46.048C188.617 46.444 188.839 46.72 189.151 46.876C189.475 47.032 189.919 47.11 190.483 47.11C190.891 47.11 191.395 47.098 191.995 47.074C192.607 47.038 193.219 46.984 193.831 46.912L194.083 48.55C193.735 48.718 193.339 48.85 192.895 48.946C192.451 49.042 191.995 49.108 191.527 49.144C191.059 49.192 190.609 49.216 190.177 49.216C189.049 49.216 188.137 49.054 187.441 48.73C186.757 48.394 186.259 47.884 185.947 47.2C185.647 46.516 185.497 45.64 185.497 44.572C185.497 43.408 185.653 42.484 185.965 41.8C186.277 41.116 186.769 40.624 187.441 40.324C188.113 40.024 188.995 39.874 190.087 39.874ZM204.51 36.328C205.698 36.328 206.64 36.538 207.336 36.958C208.044 37.378 208.548 38.062 208.848 39.01C209.16 39.946 209.316 41.206 209.316 42.79C209.316 44.374 209.16 45.64 208.848 46.588C208.548 47.524 208.044 48.202 207.336 48.622C206.64 49.042 205.698 49.252 204.51 49.252C203.322 49.252 202.374 49.042 201.666 48.622C200.97 48.202 200.472 47.524 200.172 46.588C199.872 45.64 199.722 44.374 199.722 42.79C199.722 41.206 199.872 39.946 200.172 39.01C200.472 38.062 200.97 37.378 201.666 36.958C202.374 36.538 203.322 36.328 204.51 36.328ZM204.492 38.488C204.096 38.488 203.766 38.554 203.502 38.686C203.238 38.818 203.028 39.04 202.872 39.352C202.716 39.664 202.602 40.102 202.53 40.666C202.47 41.218 202.44 41.926 202.44 42.79C202.44 43.642 202.47 44.35 202.53 44.914C202.602 45.478 202.716 45.916 202.872 46.228C203.028 46.54 203.238 46.762 203.502 46.894C203.766 47.026 204.096 47.092 204.492 47.092C204.9 47.092 205.236 47.026 205.5 46.894C205.776 46.762 205.992 46.54 206.148 46.228C206.316 45.916 206.43 45.478 206.49 44.914C206.562 44.35 206.598 43.642 206.598 42.79C206.598 41.926 206.562 41.218 206.49 40.666C206.43 40.102 206.316 39.664 206.148 39.352C205.992 39.04 205.776 38.818 205.5 38.686C205.236 38.554 204.9 38.488 204.492 38.488ZM216.315 36.58V49H213.579V40.198C213.579 39.97 213.585 39.748 213.597 39.532C213.609 39.304 213.639 39.076 213.687 38.848L210.735 39.604L210.411 37.822L213.579 36.58H216.315Z" fill="#393D51"/>
<path d="M114.062 68H111.145V58.5455H114.192C115.109 58.5455 115.894 58.7347 116.546 59.1133C117.199 59.4888 117.699 60.0289 118.047 60.7337C118.394 61.4354 118.568 62.2756 118.568 63.2543C118.568 64.2391 118.393 65.087 118.042 65.7979C117.691 66.5058 117.18 67.0505 116.509 67.4322C115.838 67.8107 115.023 68 114.062 68ZM112.29 66.9844H113.989C114.77 66.9844 115.418 66.8336 115.932 66.532C116.446 66.2304 116.829 65.801 117.082 65.244C117.334 64.6869 117.46 64.0237 117.46 63.2543C117.46 62.491 117.336 61.8339 117.086 61.283C116.837 60.729 116.465 60.3043 115.969 60.0089C115.474 59.7103 114.857 59.5611 114.118 59.5611H112.29V66.9844ZM123.314 68.1477C122.631 68.1477 122.041 67.9969 121.546 67.6953C121.053 67.3906 120.673 66.9659 120.406 66.4212C120.141 65.8733 120.009 65.2363 120.009 64.5099C120.009 63.7836 120.141 63.1435 120.406 62.5895C120.673 62.0324 121.046 61.5985 121.523 61.2876C122.003 60.9737 122.563 60.8168 123.203 60.8168C123.572 60.8168 123.937 60.8783 124.297 61.0014C124.657 61.1245 124.985 61.3246 125.281 61.6016C125.576 61.8755 125.811 62.2386 125.987 62.6911C126.162 63.1435 126.25 63.7005 126.25 64.3622V64.8239H120.784V63.8821H125.142C125.142 63.482 125.062 63.125 124.902 62.8111C124.745 62.4972 124.52 62.2494 124.228 62.0678C123.939 61.8862 123.597 61.7955 123.203 61.7955C122.769 61.7955 122.394 61.9032 122.077 62.1186C121.763 62.331 121.521 62.608 121.352 62.9496C121.183 63.2912 121.098 63.6574 121.098 64.0483V64.6761C121.098 65.2116 121.19 65.6656 121.375 66.038C121.563 66.4073 121.823 66.6889 122.155 66.8828C122.488 67.0736 122.874 67.169 123.314 67.169C123.6 67.169 123.859 67.129 124.089 67.049C124.323 66.9659 124.525 66.8428 124.694 66.6797C124.864 66.5135 124.994 66.3073 125.087 66.0611L126.139 66.3565C126.028 66.7135 125.842 67.0275 125.581 67.2983C125.319 67.5661 124.996 67.7753 124.611 67.9261C124.226 68.0739 123.794 68.1477 123.314 68.1477ZM133.49 60.9091L130.868 68H129.76L127.138 60.9091H128.319L130.277 66.5597H130.351L132.308 60.9091H133.49ZM135.076 68V58.5455H138.381C139.04 58.5455 139.583 58.6593 140.011 58.8871C140.438 59.1117 140.757 59.4149 140.966 59.7965C141.175 60.1751 141.28 60.5952 141.28 61.0568C141.28 61.4631 141.208 61.7985 141.063 62.0632C140.922 62.3279 140.734 62.5372 140.5 62.6911C140.269 62.8449 140.018 62.9588 139.747 63.0327V63.125C140.037 63.1435 140.328 63.245 140.62 63.4297C140.912 63.6143 141.157 63.879 141.354 64.2237C141.551 64.5684 141.649 64.9901 141.649 65.4886C141.649 65.9626 141.542 66.3888 141.326 66.7674C141.111 67.146 140.771 67.446 140.306 67.6676C139.841 67.8892 139.237 68 138.492 68H135.076ZM136.22 66.9844H138.492C139.24 66.9844 139.771 66.8397 140.084 66.5504C140.401 66.258 140.56 65.9041 140.56 65.4886C140.56 65.1686 140.478 64.8731 140.315 64.6023C140.152 64.3284 139.92 64.1098 139.618 63.9467C139.317 63.7805 138.96 63.6974 138.547 63.6974H136.22V66.9844ZM136.22 62.7003H138.344C138.689 62.7003 139 62.6326 139.277 62.4972C139.557 62.3617 139.778 62.1709 139.941 61.9247C140.108 61.6785 140.191 61.3892 140.191 61.0568C140.191 60.6413 140.046 60.2889 139.757 59.9996C139.467 59.7073 139.009 59.5611 138.381 59.5611H136.22V62.7003ZM146.264 68.1477C145.623 68.1477 145.062 67.9954 144.579 67.6907C144.098 67.386 143.723 66.9598 143.452 66.4119C143.184 65.8641 143.051 65.224 143.051 64.4915C143.051 63.7528 143.184 63.1081 143.452 62.5572C143.723 62.0063 144.098 61.5785 144.579 61.2738C145.062 60.9691 145.623 60.8168 146.264 60.8168C146.904 60.8168 147.464 60.9691 147.944 61.2738C148.427 61.5785 148.803 62.0063 149.07 62.5572C149.341 63.1081 149.477 63.7528 149.477 64.4915C149.477 65.224 149.341 65.8641 149.07 66.4119C148.803 66.9598 148.427 67.386 147.944 67.6907C147.464 67.9954 146.904 68.1477 146.264 68.1477ZM146.264 67.169C146.75 67.169 147.15 67.0444 147.464 66.7951C147.778 66.5458 148.01 66.218 148.161 65.8118C148.312 65.4055 148.387 64.9654 148.387 64.4915C148.387 64.0175 148.312 63.5759 148.161 63.1665C148.01 62.7572 147.778 62.4264 147.464 62.174C147.15 61.9216 146.75 61.7955 146.264 61.7955C145.777 61.7955 145.377 61.9216 145.063 62.174C144.749 62.4264 144.517 62.7572 144.366 63.1665C144.215 63.5759 144.14 64.0175 144.14 64.4915C144.14 64.9654 144.215 65.4055 144.366 65.8118C144.517 66.218 144.749 66.5458 145.063 66.7951C145.377 67.0444 145.777 67.169 146.264 67.169ZM154.02 68.1477C153.38 68.1477 152.819 67.9954 152.335 67.6907C151.855 67.386 151.48 66.9598 151.209 66.4119C150.941 65.8641 150.807 65.224 150.807 64.4915C150.807 63.7528 150.941 63.1081 151.209 62.5572C151.48 62.0063 151.855 61.5785 152.335 61.2738C152.819 60.9691 153.38 60.8168 154.02 60.8168C154.661 60.8168 155.221 60.9691 155.701 61.2738C156.184 61.5785 156.559 62.0063 156.827 62.5572C157.098 63.1081 157.233 63.7528 157.233 64.4915C157.233 65.224 157.098 65.8641 156.827 66.4119C156.559 66.9598 156.184 67.386 155.701 67.6907C155.221 67.9954 154.661 68.1477 154.02 68.1477ZM154.02 67.169C154.507 67.169 154.907 67.0444 155.221 66.7951C155.535 66.5458 155.767 66.218 155.918 65.8118C156.069 65.4055 156.144 64.9654 156.144 64.4915C156.144 64.0175 156.069 63.5759 155.918 63.1665C155.767 62.7572 155.535 62.4264 155.221 62.174C154.907 61.9216 154.507 61.7955 154.02 61.7955C153.534 61.7955 153.134 61.9216 152.82 62.174C152.506 62.4264 152.274 62.7572 152.123 63.1665C151.972 63.5759 151.897 64.0175 151.897 64.4915C151.897 64.9654 151.972 65.4055 152.123 65.8118C152.274 66.218 152.506 66.5458 152.82 66.7951C153.134 67.0444 153.534 67.169 154.02 67.169ZM163.919 62.4972L162.941 62.7741C162.879 62.611 162.788 62.4525 162.668 62.2987C162.551 62.1417 162.391 62.0124 162.188 61.9109C161.985 61.8093 161.725 61.7585 161.408 61.7585C160.974 61.7585 160.612 61.8585 160.323 62.0586C160.037 62.2556 159.894 62.5064 159.894 62.8111C159.894 63.0819 159.992 63.2958 160.189 63.4528C160.386 63.6097 160.694 63.7405 161.112 63.8452L162.165 64.1037C162.799 64.2576 163.271 64.493 163.582 64.81C163.893 65.1239 164.049 65.5286 164.049 66.0241C164.049 66.4304 163.932 66.7936 163.698 67.1136C163.467 67.4337 163.144 67.6861 162.728 67.8707C162.313 68.0554 161.83 68.1477 161.279 68.1477C160.555 68.1477 159.957 67.9908 159.483 67.6768C159.009 67.3629 158.709 66.9044 158.583 66.3011L159.617 66.0426C159.715 66.4242 159.901 66.7105 160.175 66.9013C160.452 67.0921 160.814 67.1875 161.26 67.1875C161.768 67.1875 162.171 67.0798 162.47 66.8643C162.771 66.6458 162.922 66.3842 162.922 66.0795C162.922 65.8333 162.836 65.6271 162.664 65.4609C162.491 65.2917 162.227 65.1655 161.87 65.0824L160.688 64.8054C160.038 64.6515 159.561 64.413 159.257 64.0898C158.955 63.7636 158.804 63.3558 158.804 62.8665C158.804 62.4664 158.917 62.1125 159.141 61.8047C159.369 61.4969 159.678 61.2553 160.069 61.0799C160.463 60.9045 160.909 60.8168 161.408 60.8168C162.11 60.8168 162.661 60.9706 163.061 61.2784C163.464 61.5862 163.75 61.9924 163.919 62.4972ZM168.772 60.9091V61.8324H165.098V60.9091H168.772ZM166.169 59.2102H167.258V65.9688C167.258 66.2765 167.303 66.5073 167.392 66.6612C167.484 66.812 167.601 66.9136 167.743 66.9659C167.888 67.0152 168.04 67.0398 168.2 67.0398C168.32 67.0398 168.418 67.0336 168.495 67.0213C168.572 67.0059 168.634 66.9936 168.68 66.9844L168.902 67.9631C168.828 67.9908 168.725 68.0185 168.592 68.0462C168.46 68.0769 168.292 68.0923 168.089 68.0923C167.781 68.0923 167.48 68.0262 167.184 67.8938C166.892 67.7615 166.649 67.5599 166.455 67.2891C166.264 67.0182 166.169 66.6766 166.169 66.2642V59.2102Z" fill="#414246"/>
<circle cx="69.5" cy="52.5" r="21.5" fill="#F1554C"/>
<path d="M73.7286 41.0984C73.8709 41.1799 73.9811 41.3068 74.041 41.4582C74.101 41.6096 74.1072 41.7767 74.0587 41.9321L71.4392 50.3439H76.2725C76.4145 50.3438 76.5534 50.3848 76.6721 50.4619C76.7908 50.539 76.8841 50.6488 76.9404 50.7777C76.9967 50.9065 77.0136 51.0489 76.989 51.1871C76.9644 51.3254 76.8993 51.4535 76.8019 51.5556L65.166 63.7737C65.0534 63.892 64.9035 63.9691 64.7409 63.9925C64.5783 64.0159 64.4124 63.9842 64.2704 63.9025C64.1283 63.8208 64.0185 63.6939 63.9587 63.5426C63.899 63.3914 63.8928 63.2245 63.9413 63.0693L66.5608 54.6561H61.7275C61.5855 54.6562 61.4466 54.6151 61.3279 54.538C61.2091 54.4609 61.1159 54.3512 61.0596 54.2223C61.0033 54.0934 60.9864 53.9511 61.011 53.8128C61.0356 53.6746 61.1007 53.5465 61.1981 53.4444L72.834 41.2263C72.9465 41.1082 73.0961 41.0311 73.2585 41.0076C73.4209 40.9841 73.5866 41.0156 73.7286 41.0969V41.0984Z" fill="white"/>
<defs>
<filter id="filter0_d_39_408" x="0" y="0" width="268" height="119" filterUnits="userSpaceOnUse" color-interpolation-filters="sRGB">
<feFlood flood-opacity="0" result="BackgroundImageFix"/>
<feColorMatrix in="SourceAlpha" type="matrix" values="0 0 0 0 0 0 0 0 0 0 0 0 0 0 0 0 0 0 127 0" result="hardAlpha"/>
<feOffset dy="6"/>
<feGaussianBlur stdDeviation="13"/>
<feComposite in2="hardAlpha" operator="out"/>
<feColorMatrix type="matrix" values="0 0 0 0 0 0 0 0 0 0 0 0 0 0 0 0 0 0 0.03 0"/>
<feBlend mode="normal" in2="BackgroundImageFix" result="effect1_dropShadow_39_408"/>
<feBlend mode="normal" in="SourceGraphic" in2="effect1_dropShadow_39_408" result="shape"/>
</filter>
</defs>
</svg>
